<svg width="186" height="28" viewBox="0 0 186 28" fill="none" xmlns="http://www.w3.org/2000/svg">
<g clip-path="url(#clip0_2_44)">
<path d="M23.4266 3.4317L15.521 22.185H10.363L6.47232 7.21823C6.23674 6.29854 6.03162 5.96002 5.31371 5.57129C4.14046 4.93758 2.20301 4.34489 0.5 3.97609L0.614897 3.4317H8.91869C9.97551 3.4317 10.927 4.13135 11.1688 5.3428L13.2247 16.1956L18.2997 3.4317H23.4266ZM30.3993 3.4317L26.3648 22.185H21.4853L25.5197 3.4317H30.3993ZM43.6356 16.0622C43.6561 11.1136 36.7541 10.8391 36.7992 8.62789C36.8158 7.95584 37.4598 7.24009 38.8693 7.05722C39.5676 6.96751 41.4965 6.89582 43.6815 7.89679L44.5363 3.91782C43.3623 3.49572 41.8516 3.08936 39.9724 3.08936C35.1487 3.08936 31.7554 5.63684 31.7284 9.28766C31.6968 11.9882 34.152 13.4932 35.9985 14.3926C37.9004 15.3111 38.5381 15.9015 38.5292 16.7224C38.5158 17.9806 37.0105 18.5375 35.611 18.5582C33.1568 18.597 31.7342 17.8988 30.5995 17.3733L29.7138 21.4841C30.8555 22.0044 32.9595 22.4564 35.1387 22.4794C40.2666 22.4794 43.6206 19.961 43.6356 16.0622ZM56.3733 22.185H60.8848L56.9432 3.4317H52.7807C51.8418 3.4317 51.053 3.97341 50.7029 4.80646L43.3812 22.185H48.5052L49.5216 19.3837H55.7818L56.3733 22.185ZM50.9266 15.5408L53.4959 8.49831L54.9718 15.5408H50.9266Z" fill="#1A1F71"/>
<path d="M169.072 2.97656H157.131V24.3116H169.072V2.97656Z" fill="#6C6BBD"/>
<path d="M157.89 13.6437C157.89 9.30887 159.937 5.46404 163.083 2.9762C160.771 1.16687 157.851 0.0737305 154.667 0.0737305C147.123 0.0737305 141.019 6.14254 141.019 13.6437C141.019 21.1449 147.123 27.2137 154.667 27.2137C157.851 27.2137 160.771 26.1206 163.083 24.3113C159.937 21.8611 157.89 17.9786 157.89 13.6437Z" fill="#EB001B"/>
<path d="M185.185 13.6437C185.185 21.1449 179.081 27.2137 171.537 27.2137C168.353 27.2137 165.433 26.1206 163.121 24.3113C166.306 21.8234 168.314 17.9786 168.314 13.6437C168.314 9.30887 166.267 5.46404 163.121 2.9762C165.433 1.16687 168.353 0.0737305 171.537 0.0737305C179.081 0.0737305 185.185 6.18023 185.185 13.6437Z" fill="#0099DF"/>
<path d="M106.395 2.97656H94.4532V24.3116H106.395V2.97656Z" fill="#FF5F00"/>
<path d="M95.2114 13.6437C95.2114 9.30887 97.2586 5.46404 100.405 2.9762C98.0926 1.16687 95.1735 0.0737305 91.9891 0.0737305C84.445 0.0737305 78.3416 6.14254 78.3416 13.6437C78.3416 21.1449 84.445 27.2137 91.9891 27.2137C95.1735 27.2137 98.0926 26.1206 100.405 24.3113C97.2586 21.8611 95.2114 17.9786 95.2114 13.6437Z" fill="#EB001B"/>
<path d="M122.507 13.6437C122.507 21.1449 116.403 27.2137 108.859 27.2137C105.675 27.2137 102.755 26.1206 100.443 24.3113C103.628 21.8234 105.637 17.9786 105.637 13.6437C105.637 9.30887 103.59 5.46404 100.443 2.9762C102.755 1.16687 105.675 0.0737305 108.859 0.0737305C116.403 0.0737305 122.507 6.18023 122.507 13.6437Z" fill="#F79E1B"/>
</g>
<defs>
<clipPath id="clip0_2_44">
<rect width="185" height="27.14" fill="white" transform="translate(0.5 0.0737305)"/>
</clipPath>
</defs>
</svg>
